<svg width="58" height="60" viewBox="0 0 58 60" fill="none" xmlns="http://www.w3.org/2000/svg">
<path d="M55.9308 0H22.1961C21.5175 0 20.9656 0.551953 20.9656 1.23047V3.98426H18.2118C17.5333 3.98426 16.9813 4.53621 16.9813 5.21473V16.0031L4.07383 22.4539C3.37434 22.8035 2.9398 23.5064 2.9398 24.2884V31.0518C2.9398 33.3464 3.21121 35.3939 3.72801 37.2505C1.96082 38.7742 0.838867 41.0266 0.838867 43.5376C0.838867 48.1157 4.56344 51.8402 9.14149 51.8402C10.228 51.8402 11.2655 51.6282 12.2175 51.247V55.9614C12.2175 56.4848 12.5267 56.9603 13.0052 57.1726C13.4834 57.385 14.0437 57.2952 14.4318 56.9441L17.6549 54.0284L20.8782 56.9441C21.1265 57.1687 21.4451 57.2863 21.7677 57.2863C21.9494 57.2863 22.1324 57.249 22.3048 57.1725C22.7833 56.96 23.0924 56.4846 23.0924 55.9612V49.0353H29.7032C30.1887 49.0353 30.5821 48.6418 30.5821 48.1564C30.5821 47.6711 30.1887 47.2775 29.7032 47.2775H24.854C26.7167 45.6832 28.2721 43.9731 29.4762 42.043H44.8806C45.3661 42.043 45.7595 41.6495 45.7595 41.1641C45.7595 40.6787 45.3661 40.2852 44.8806 40.2852H30.4431C30.7894 39.5641 31.0918 38.8127 31.3473 38.0261H34.2735C34.759 38.0261 35.1524 37.6325 35.1524 37.1471C35.1524 36.6618 34.759 36.2682 34.2735 36.2682H31.8289C31.9906 35.5448 32.1162 34.7923 32.2059 34.0091H44.8805C45.366 34.0091 45.7594 33.6156 45.7594 33.1302C45.7594 32.6448 45.366 32.2513 44.8805 32.2513H32.3414C32.3584 31.8582 32.3697 31.46 32.3697 31.0516V29.9921H44.8805C45.366 29.9921 45.7594 29.5986 45.7594 29.1132C45.7594 28.6278 45.366 28.2343 44.8805 28.2343H32.3698V25.9752H36.8516C37.3372 25.9752 37.7305 25.5817 37.7305 25.0963C37.7305 24.6109 37.3372 24.2174 36.8516 24.2174H32.3673C32.3419 23.4641 31.9139 22.7927 31.2358 22.4538L30.2443 21.9582H44.8805C45.366 21.9582 45.7594 21.5647 45.7594 21.0793C45.7594 20.5939 45.366 20.2004 44.8805 20.2004H26.727L18.739 16.2082V5.74207H51.4192V12.3047C51.4192 12.7901 51.8126 13.1836 52.2981 13.1836C52.7836 13.1836 53.177 12.7901 53.177 12.3047V5.21473C53.177 4.53621 52.6251 3.98426 51.9466 3.98426H22.7234V1.75781H55.4036V43.2934H53.177V16.4062C53.177 15.9209 52.7836 15.5273 52.2981 15.5273C51.8126 15.5273 51.4192 15.9209 51.4192 16.4062V47.2777H33.8048C33.3193 47.2777 32.9259 47.6712 32.9259 48.1566C32.9259 48.6419 33.3193 49.0355 33.8048 49.0355H51.9466C52.6251 49.0355 53.177 48.4835 53.177 47.805V45.0512H55.9308C56.6093 45.0512 57.1613 44.4993 57.1613 43.8207V1.23047C57.1613 0.551953 56.6093 0 55.9308 0V0ZM2.59668 43.5376C2.59668 39.9288 5.5327 36.9928 9.14149 36.9928C12.7503 36.9928 15.6863 39.9288 15.6863 43.5376C15.6863 47.1464 12.7503 50.0824 9.14149 50.0824C5.5327 50.0824 2.59668 47.1464 2.59668 43.5376ZM18.5438 52.4623C18.037 52.0038 17.2724 52.0038 16.7658 52.4623L13.9752 54.9867V50.2816C16.0736 48.7733 17.444 46.3133 17.444 43.5377C17.444 42.7801 17.34 42.0468 17.149 41.3489C17.3166 41.3585 17.4849 41.3652 17.6548 41.3652C18.9653 41.3652 20.2101 41.0815 21.3344 40.5758V54.9867L18.5438 52.4623ZM30.612 24.2884V31.0518C30.612 35.6801 29.458 39.3378 26.9807 42.563C25.9465 43.9092 24.6916 45.1777 23.0922 46.4712V39.5318C25.2573 37.8859 26.6586 35.2847 26.6586 32.3613C26.6586 30.9156 26.3055 29.4757 25.6374 28.1974C25.4126 27.7672 24.8815 27.6008 24.4513 27.8256C24.0211 28.0504 23.8546 28.5814 24.0795 29.0116C24.6244 30.0544 24.9007 31.1815 24.9007 32.3614C24.9007 36.3568 21.6503 39.6074 17.6548 39.6074C17.2233 39.6074 16.8007 39.5686 16.3899 39.4957C15.2789 37.5114 13.3778 36.028 11.1148 35.4741C10.6633 34.5305 10.4089 33.4754 10.4089 32.3614C10.4089 28.3661 13.6593 25.1155 17.6548 25.1155C19.0681 25.1155 20.4387 25.5241 21.6188 26.2971C22.0245 26.5631 22.5695 26.4497 22.8355 26.0435C23.1016 25.6375 22.988 25.0927 22.582 24.8268C21.115 23.8657 19.4112 23.3577 17.6548 23.3577C12.6902 23.3577 8.65106 27.3967 8.65106 32.3614C8.65106 33.3663 8.81781 34.3327 9.12356 35.2356C7.73313 35.2385 6.42262 35.5861 5.27102 36.1957C4.88699 34.614 4.69762 32.9123 4.69762 31.0519V24.2885C4.69762 24.1768 4.75961 24.0764 4.85957 24.0265L17.6547 17.6317L30.4499 24.0265C30.5499 24.0763 30.612 24.1767 30.612 24.2884Z" fill="#DF681F"/>
<path d="M24.3994 17.0627C24.3994 17.5481 24.7929 17.9417 25.2783 17.9417H44.8811C45.3666 17.9417 45.76 17.5481 45.76 17.0627C45.76 16.5774 45.3666 16.1838 44.8811 16.1838H25.2783C24.7928 16.1838 24.3994 16.5772 24.3994 17.0627Z" fill="#DF681F"/>
<path d="M44.8804 24.2175H40.1328C39.6473 24.2175 39.2539 24.611 39.2539 25.0964C39.2539 25.5818 39.6473 25.9753 40.1328 25.9753H44.8805C45.3661 25.9753 45.7595 25.5818 45.7595 25.0964C45.7595 24.611 45.3659 24.2175 44.8804 24.2175Z" fill="#DF681F"/>
<path d="M44.8804 36.2683H37.4375C36.952 36.2683 36.5586 36.6618 36.5586 37.1472C36.5586 37.6326 36.952 38.0261 37.4375 38.0261H44.8805C45.3661 38.0261 45.7595 37.6326 45.7595 37.1472C45.7595 36.6618 45.3659 36.2683 44.8804 36.2683Z" fill="#DF681F"/>
<path d="M41.1046 12.1392C41.5901 12.1392 41.9835 11.7456 41.9835 11.2603C41.9835 10.7749 41.5901 10.3813 41.1046 10.3813H29.0537C28.5683 10.3813 28.1748 10.7749 28.1748 11.2603C28.1748 11.7456 28.5683 12.1392 29.0537 12.1392H41.1046Z" fill="#DF681F"/>
<path d="M20.3673 30.318L17.2346 33.4506L15.1849 31.4009C14.8417 31.0577 14.2851 31.0577 13.942 31.4009C13.5988 31.7442 13.5988 32.3007 13.942 32.6438L16.6132 35.315C16.7847 35.4867 17.0097 35.5724 17.2346 35.5724C17.4595 35.5724 17.6845 35.4867 17.8561 35.315L21.6103 31.5609C21.9535 31.2176 21.9535 30.6611 21.6103 30.318C21.2669 29.9747 20.7104 29.9747 20.3673 30.318Z" fill="#DF681F"/>
<path d="M33.7863 53.1251L31.9854 52.8634L31.1802 51.2317C31.1802 51.2317 31.1802 51.2316 31.1801 51.2316C30.9552 50.7759 30.4999 50.4929 29.9917 50.4929C29.4837 50.4929 29.0283 50.7759 28.8033 51.2317L27.998 52.8634L26.1972 53.1251C25.6943 53.1982 25.2844 53.5438 25.1274 54.027C24.9704 54.5102 25.0988 55.0307 25.4628 55.3855L26.7658 56.6557L26.4582 58.4492C26.3723 58.95 26.5743 59.4467 26.9854 59.7454C27.2177 59.9141 27.4894 59.9999 27.7632 59.9999C27.9738 59.9999 28.1855 59.949 28.3811 59.8463L29.9917 58.9995L31.6024 59.8463C32.0521 60.0825 32.5866 60.0441 32.9979 59.7454C33.409 59.4468 33.6111 58.9501 33.5252 58.4492L33.2175 56.6557L34.5207 55.3855C34.8844 55.0309 35.013 54.5104 34.8559 54.0271C34.699 53.5439 34.2892 53.1982 33.7863 53.1251ZM31.8278 55.5558C31.5154 55.8604 31.3729 56.2988 31.4467 56.7288L31.6445 57.8826L30.6085 57.338C30.4154 57.2364 30.2035 57.1856 29.9916 57.1856C29.7797 57.1856 29.5681 57.2364 29.375 57.3379L28.3389 57.8826L28.5367 56.7288C28.6104 56.2988 28.4679 55.8602 28.1555 55.5558L27.3173 54.7388L28.4757 54.5704C28.9073 54.5077 29.2803 54.2367 29.4735 53.8453L29.9915 52.7957L30.5096 53.8453C30.7026 54.2366 31.0757 54.5077 31.5075 54.5704L32.6659 54.7388L31.8278 55.5558Z" fill="#DF681F"/>
<path d="M44.661 53.1251L42.8603 52.8634L42.0551 51.2317C42.0551 51.2317 42.0551 51.2316 42.055 51.2316C41.8301 50.7759 41.3747 50.4929 40.8666 50.4929C40.3586 50.4929 39.9032 50.7759 39.6782 51.2317L38.873 52.8634L37.0721 53.1251C36.5692 53.1982 36.1594 53.5438 36.0024 54.0271C35.8453 54.5104 35.9739 55.0308 36.3376 55.3855L37.6408 56.6557L37.3331 58.449C37.2471 58.9498 37.449 59.4464 37.86 59.7452C38.271 60.0441 38.8058 60.0827 39.256 59.8463L40.8665 58.9995L42.4771 59.8463C42.6728 59.949 42.8844 59.9999 43.095 59.9999C43.3685 59.9999 43.6403 59.9141 43.8727 59.7454C44.2838 59.4468 44.4858 58.9501 44.3999 58.4492L44.0923 56.6557L45.3954 55.3855C45.7592 55.0309 45.8877 54.5104 45.7307 54.0271C45.5739 53.5439 45.164 53.1982 44.661 53.1251ZM42.7027 55.5558C42.3903 55.8604 42.2478 56.2988 42.3216 56.7288L42.5194 57.8825L41.4833 57.338C41.2902 57.2364 41.0783 57.1856 40.8665 57.1856C40.6546 57.1856 40.443 57.2364 40.2498 57.3379L39.2137 57.8825L39.4116 56.7288C39.4853 56.2989 39.3428 55.8604 39.0304 55.5558L38.1921 54.7388L39.3505 54.5704C39.7824 54.5077 40.1554 54.2366 40.3485 53.8453L40.8665 52.7957L41.3845 53.8453C41.5776 54.2366 41.9507 54.5077 42.3825 54.5704L43.5409 54.7388L42.7027 55.5558Z" fill="#DF681F"/>
<path d="M55.537 53.1251L53.7363 52.8634L52.9311 51.2317C52.9311 51.2317 52.9311 51.2316 52.931 51.2316C52.7061 50.7759 52.2507 50.4929 51.7427 50.4929C51.2346 50.4929 50.7792 50.7759 50.5542 51.2317L49.749 52.8634L47.948 53.1251C47.4452 53.1982 47.0354 53.5438 46.8783 54.0271C46.7213 54.5104 46.8499 55.0309 47.2136 55.3855L48.5167 56.6557L48.2091 58.449C48.1231 58.9498 48.325 59.4465 48.7361 59.7453C48.9684 59.9141 49.2403 59.9999 49.5139 59.9999C49.7246 59.9999 49.9362 59.949 50.1318 59.8463L51.7425 58.9995L53.3531 59.8463C53.8028 60.0825 54.3373 60.0441 54.7487 59.7454C55.1598 59.4468 55.3618 58.9501 55.2759 58.4492L54.9683 56.6557L56.2715 55.3854C56.6353 55.0307 56.7637 54.5101 56.6066 54.027C56.4498 53.5438 56.0398 53.1982 55.537 53.1251ZM53.579 55.5554C53.2664 55.8599 53.1237 56.2985 53.1976 56.7288L53.3954 57.8826L52.3593 57.338C52.1663 57.2364 51.9544 57.1856 51.7426 57.1856C51.5307 57.1856 51.3189 57.2364 51.1257 57.3379L50.0896 57.8826L50.2876 56.7288C50.3613 56.2989 50.2188 55.8604 49.9064 55.5558L49.0681 54.7388L50.2265 54.5704C50.658 54.5077 51.0309 54.2368 51.2245 53.8453L51.7426 52.7957L52.2605 53.8453C52.4535 54.2366 52.8267 54.5077 53.2585 54.5704L54.4169 54.7388L53.579 55.5554Z" fill="#DF681F"/>
<path d="M12.5653 41.5431L10.9926 41.3144L10.2892 39.8892C10.0719 39.4491 9.63214 39.1755 9.14124 39.1755C8.65034 39.1755 8.21042 39.4491 7.99327 39.8892L7.28991 41.3144L5.71725 41.543C5.23151 41.6135 4.83554 41.9474 4.68378 42.4141C4.53202 42.881 4.65612 43.3839 5.00768 43.7265L6.14581 44.8359L5.87722 46.4023C5.79425 46.8861 5.98936 47.3659 6.38651 47.6545C6.61093 47.8175 6.87343 47.9004 7.1378 47.9004C7.34124 47.9004 7.54573 47.8513 7.73475 47.7519L9.14147 47.0123L10.5482 47.7519C10.9827 47.9804 11.4993 47.943 11.8964 47.6545C12.2936 47.366 12.4887 46.8861 12.4057 46.4024L12.1371 44.8359L13.2753 43.7265C13.6268 43.3839 13.7509 42.881 13.5992 42.4141C13.4469 41.9474 13.051 41.6136 12.5653 41.5431ZM10.7299 43.7525C10.4282 44.0467 10.2905 44.4703 10.3617 44.8856L10.5093 45.7458L9.7369 45.3397C9.36389 45.1437 8.91847 45.1437 8.54546 45.3397L7.77307 45.7458L7.92061 44.8856C7.99186 44.4703 7.85417 44.0467 7.55241 43.7526L6.92745 43.1435L7.79065 43.018C8.20796 42.9575 8.56843 42.6957 8.75487 42.3177L9.14112 41.5351L9.52725 42.3175C9.7137 42.6956 10.0742 42.9574 10.4912 43.0179L11.3548 43.1434L10.7299 43.7525Z" fill="#DF681F"/>
</svg>
