<svg width="60" height="60" viewBox="0 0 60 60" fill="none" xmlns="http://www.w3.org/2000/svg">
<g clip-path="url(#clip0_589:964)">
<path d="M16.25 47.5H11.25C10.56 47.5 10 46.94 10 46.25C10 45.56 10.56 45 11.25 45H16.25C16.94 45 17.5 45.56 17.5 46.25C17.5 46.94 16.94 47.5 16.25 47.5Z" fill="#DF681F"/>
<path d="M56.8754 47.5H53.7504C53.0604 47.5 52.5004 46.94 52.5004 46.25C52.5004 45.56 53.0604 45 53.7504 45H55.8379L57.5229 36.02C57.5004 31.425 53.5754 27.5 48.7504 27.5H40.5429L36.5654 45H43.7504C44.4404 45 45.0004 45.56 45.0004 46.25C45.0004 46.94 44.4404 47.5 43.7504 47.5H35.0004C34.6204 47.5 34.2604 47.3275 34.0229 47.03C33.7854 46.735 33.6954 46.345 33.7804 45.975L38.3254 25.975C38.4554 25.4025 38.9604 25 39.5454 25H48.7504C54.9529 25 60.0004 30.0475 60.0004 36.25L58.1029 46.48C57.9929 47.0725 57.4779 47.5 56.8754 47.5Z" fill="#DF681F"/>
<path d="M48.75 52.5C45.305 52.5 42.5 49.6975 42.5 46.25C42.5 42.8025 45.305 40 48.75 40C52.195 40 55 42.8025 55 46.25C55 49.6975 52.195 52.5 48.75 52.5ZM48.75 42.5C46.6825 42.5 45 44.1825 45 46.25C45 48.3175 46.6825 50 48.75 50C50.8175 50 52.5 48.3175 52.5 46.25C52.5 44.1825 50.8175 42.5 48.75 42.5Z" fill="#DF681F"/>
<path d="M21.25 52.5C17.805 52.5 15 49.6975 15 46.25C15 42.8025 17.805 40 21.25 40C24.695 40 27.5 42.8025 27.5 46.25C27.5 49.6975 24.695 52.5 21.25 52.5ZM21.25 42.5C19.1825 42.5 17.5 44.1825 17.5 46.25C17.5 48.3175 19.1825 50 21.25 50C23.3175 50 25 48.3175 25 46.25C25 44.1825 23.3175 42.5 21.25 42.5Z" fill="#DF681F"/>
<path d="M16.25 25H6.25C5.56 25 5 24.44 5 23.75C5 23.06 5.56 22.5 6.25 22.5H16.25C16.94 22.5 17.5 23.06 17.5 23.75C17.5 24.44 16.94 25 16.25 25Z" fill="#DF681F"/>
<path d="M16.25 32.5H3.75C3.06 32.5 2.5 31.94 2.5 31.25C2.5 30.56 3.06 30 3.75 30H16.25C16.94 30 17.5 30.56 17.5 31.25C17.5 31.94 16.94 32.5 16.25 32.5Z" fill="#DF681F"/>
<path d="M16.25 40H1.25C0.56 40 0 39.44 0 38.75C0 38.06 0.56 37.5 1.25 37.5H16.25C16.94 37.5 17.5 38.06 17.5 38.75C17.5 39.44 16.94 40 16.25 40Z" fill="#DF681F"/>
<path d="M35 47.5H26.25C25.56 47.5 25 46.94 25 46.25C25 45.56 25.56 45 26.25 45H34.0025L39.6825 20H11.25C10.56 20 10 19.44 10 18.75C10 18.06 10.56 17.5 11.25 17.5H41.25C41.63 17.5 41.99 17.6725 42.2275 17.97C42.465 18.265 42.555 18.655 42.47 19.025L36.22 46.525C36.09 47.0975 35.5825 47.5 35 47.5Z" fill="#DF681F"/>
</g>
<defs>
<clipPath id="clip0_589:964">
<rect width="60" height="60" fill="white"/>
</clipPath>
</defs>
</svg>
