<svg width="60" height="60" viewBox="0 0 60 60" fill="none" xmlns="http://www.w3.org/2000/svg">
<path d="M57.3094 39.6368L59.2185 36.4209L59.2313 36.3312C59.6594 35.7158 59.9239 35.0015 60 34.2557C60 33.205 59.4491 32.4235 57.7194 32.4235H50.032C50.1517 31.9025 50.2542 31.3729 50.3395 30.8348C52.0594 19.6016 44.3474 9.10094 33.1142 7.38105C21.881 5.661 11.3804 13.373 9.66047 24.6062C9.34449 26.6703 9.34449 28.7705 9.66047 30.8346C9.73735 31.3642 9.83985 31.8937 9.96797 32.4233H2.28059C0.550929 32.4233 0 33.2049 0 34.2555C0.076073 35.0013 0.340647 35.7156 0.768738 36.3311L2.67777 39.611L0.819987 42.9166C0.391896 43.5321 0.127322 44.2464 0.0512492 44.9922C0.0512492 46.0428 0.602178 46.8244 2.33184 46.8244H8.23831V49.3868C8.2058 50.277 8.52851 51.1434 9.13517 51.7955L9.19923 51.8724C9.83056 52.5055 10.6883 52.8605 11.5823 52.8589H48.4561C50.3121 52.8449 51.8072 51.3325 51.8001 49.4765V46.914H57.7066C59.4363 46.914 59.9872 46.1325 59.9872 45.0819C59.9111 44.336 59.6465 43.6218 59.2185 43.0063L57.3094 39.6368ZM17.0147 14.7552C24.1927 7.57291 35.8338 7.56955 43.016 14.7475C46.4683 18.1977 48.4069 22.879 48.4049 27.7597C48.4074 29.333 48.2093 30.9001 47.8155 32.4233H46.0346C46.1799 31.9193 46.3037 31.4112 46.4062 30.8987C48.0529 21.8484 42.0511 13.1769 33.001 11.53C23.9507 9.88345 15.279 15.8851 13.6323 24.9353C13.2735 26.907 13.2735 28.9272 13.6323 30.8987C13.7348 31.4112 13.8586 31.9193 14.0038 32.4233H12.2229C10.577 26.1009 12.3999 19.3796 17.0147 14.7552ZM18.3728 33.0896L18.296 33.0127C17.8767 32.627 17.3282 32.4121 16.7585 32.4105H16.2844C16.0697 31.7824 15.8985 31.1403 15.7719 30.4887C15.6004 29.5849 15.5146 28.6668 15.5157 27.7468C15.5157 19.7403 22.0062 13.2497 30.0128 13.2497C38.0194 13.2497 44.5099 19.7403 44.5099 27.7468C44.5111 28.6668 44.4252 29.5848 44.2537 30.4887C44.1272 31.1403 43.956 31.7824 43.7412 32.4105H43.2671C42.6975 32.4121 42.1489 32.627 41.7297 33.0127L41.6528 33.0896C41.2253 33.518 40.9856 34.0987 40.9865 34.7039V37.1254H19.0519V34.7039C19.0495 34.0969 18.8051 33.5159 18.3728 33.0896ZM9.19923 38.112C8.57559 38.7475 8.22982 39.6048 8.23831 40.4951V44.6719H2.34465C2.43434 44.4797 2.57527 44.2363 2.69058 44.0441L4.90711 40.2004C5.10666 39.8602 5.10666 39.4387 4.90711 39.0985L2.69058 35.2549C2.57527 35.0499 2.43434 34.8192 2.34465 34.627H16.8354C16.8422 34.6479 16.8422 34.6703 16.8354 34.6911V37.1126H11.5823C10.6927 37.1144 9.84017 37.4693 9.21204 38.0992L9.19923 38.112ZM49.622 49.4765C49.6152 50.1246 49.0914 50.6483 48.4433 50.6552H11.5823C11.2699 50.6549 10.9702 50.5305 10.7495 50.3093C10.5516 50.0921 10.4419 49.8088 10.442 49.5149V40.5463C10.442 39.8953 10.9697 39.3676 11.6208 39.3676H48.4561C48.7686 39.3679 49.0682 39.4924 49.2889 39.7135C49.5101 39.9342 49.6345 40.2339 49.6348 40.5463L49.622 49.4765ZM51.8001 44.6591V40.4951C51.8017 39.6011 51.4467 38.7433 50.8136 38.112C50.1855 37.4821 49.333 37.1272 48.4433 37.1254H43.1775V34.7039C43.1706 34.6831 43.1706 34.6607 43.1775 34.6399H57.6938C57.5913 34.8064 57.4632 35.037 57.3479 35.242H57.3094L55.0929 39.0857C54.8933 39.4259 54.8933 39.8474 55.0929 40.1876L57.3094 44.0313C57.4247 44.2363 57.5657 44.4669 57.6553 44.6591H51.8001Z" fill="#DF681F"/>
<path d="M37.6349 23.1957C37.4839 23.0412 37.2905 22.935 37.0789 22.8908L33.0302 22.0324L30.9674 18.4834C30.6654 17.9633 29.9988 17.7865 29.4786 18.0887C29.315 18.1837 29.179 18.3198 29.084 18.4834L27.0212 22.0708L22.9726 22.9292C22.3837 23.0514 22.0052 23.6278 22.1274 24.2167C22.1665 24.405 22.2547 24.5798 22.3832 24.723L25.1506 27.8235L24.715 31.9363C24.649 32.5341 25.0802 33.0723 25.678 33.1382C25.8697 33.1594 26.0635 33.1293 26.2397 33.051L30.0193 31.2957L33.7477 32.9613C34.2839 33.2337 34.9394 33.0199 35.212 32.4837C35.3078 32.295 35.3467 32.0827 35.3236 31.8722L34.888 27.7595L37.617 24.7358C38.0472 24.3155 38.0553 23.6261 37.6349 23.1957ZM32.9277 26.7217C32.7221 26.9526 32.6242 27.2599 32.6586 27.5673L32.9533 30.2835L30.4677 29.1688C30.1864 29.0439 29.8651 29.0439 29.5837 29.1688L27.0981 30.2835L27.3928 27.5673C27.4293 27.235 27.3113 26.9044 27.0725 26.6704L25.2916 24.6973L27.9309 24.1464C28.2695 24.1033 28.5682 23.9042 28.7381 23.6083L30.0193 21.2893L31.3774 23.6083C31.531 23.8775 31.7919 24.0686 32.0949 24.1336L34.7599 24.6973L32.9277 26.7217Z" fill="#DF681F"/>
</svg>
