<svg width="60" height="60" viewBox="0 0 60 60" fill="none" xmlns="http://www.w3.org/2000/svg">
<g clip-path="url(#clip0_589:986)">
<path d="M56.25 38.4421C56.2397 38.4421 56.2322 38.4477 56.2228 38.4477H54.375V37.4249C56.6119 36.1265 58.1222 33.7133 58.125 30.9487C58.125 30.9477 58.125 30.9477 58.125 30.9468V28.1305C58.125 28.1296 58.125 28.1296 58.125 28.1287V26.2555C58.125 22.1221 54.7603 18.7593 50.625 18.7593C46.4897 18.7593 43.125 22.1221 43.125 26.2555V30.9468V30.9487C43.1278 33.7133 44.6381 36.1265 46.875 37.4249V38.4477H45.0272C45.0169 38.4477 45.0094 38.4421 45 38.4421C42.9394 38.4421 41.2631 40.1127 41.2519 42.1715C41.2519 42.1752 41.25 42.178 41.25 42.1818V42.1921V45.9355V45.9477C41.25 46.4662 41.6691 46.8852 42.1875 46.8852H59.0625C59.5809 46.8852 60 46.4662 60 45.9477V42.1921C60 40.124 58.3181 38.4421 56.25 38.4421ZM50.625 20.6343C53.595 20.6343 56.0288 22.948 56.2303 25.8665L55.9997 25.6377C55.7381 25.348 55.3209 25.2337 54.9422 25.3987C54.9225 25.4071 52.8759 26.2733 50.5659 26.2733C48.2728 26.2733 46.3481 25.4071 46.3284 25.3977C45.9525 25.2252 45.5287 25.333 45.2606 25.619L45.0197 25.8618C45.2231 22.9452 47.6559 20.6343 50.625 20.6343ZM45 30.9421V28.5393L46.1812 27.3524C47.0353 27.6618 48.6656 28.1474 50.5659 28.1474C52.4878 28.1474 54.1912 27.6562 55.065 27.3515L56.25 28.5262V30.9421C56.25 34.0424 53.7272 36.5643 50.625 36.5643C47.5228 36.5643 45 34.0424 45 30.9421ZM50.625 38.4393C51.2728 38.4393 51.8991 38.3474 52.5 38.1918V39.3712C52.5 39.7537 51.7697 40.3105 50.625 40.3105C49.4803 40.3105 48.75 39.7537 48.75 39.3712V38.1918C49.3509 38.3474 49.9772 38.4393 50.625 38.4393ZM44.9812 40.319C44.9878 40.319 44.9934 40.3227 45 40.3227H47.1028C47.6137 41.4168 48.9713 42.1855 50.625 42.1855C52.2788 42.1855 53.6362 41.4168 54.1472 40.3227H56.25C56.2566 40.3227 56.2622 40.319 56.2688 40.319C57.2944 40.3293 58.125 41.1637 58.125 42.1912V45.0093H43.125V42.1912C43.125 41.1637 43.9566 40.3293 44.9812 40.319Z" fill="#DF681F"/>
<path d="M0.9375 46.8724H17.8125C18.3309 46.8724 18.75 46.4533 18.75 45.9349V42.1811C18.75 40.113 17.0681 38.4311 15 38.4311C14.9897 38.4311 14.9822 38.4367 14.9728 38.4367H13.125V37.4139C15.3619 36.1164 16.8731 33.7024 16.875 30.9367V30.9358V26.717C16.875 24.6574 16.0819 22.7833 14.7947 21.3677C14.7731 21.3395 14.7487 21.3152 14.7234 21.2899C13.2675 19.7308 11.2012 18.7483 8.90531 18.7483C4.51125 18.7483 0.9375 22.323 0.9375 26.717V27.182C0.9375 27.2224 0.95625 27.2561 0.96 27.2945C0.9675 27.3574 0.976875 27.4174 0.996562 27.4755C1.01625 27.5345 1.0425 27.5852 1.07156 27.6377C1.10063 27.6892 1.13063 27.737 1.16906 27.782C1.20844 27.8289 1.25344 27.8674 1.30219 27.9058C1.34813 27.9414 1.39313 27.9742 1.44469 28.0024C1.50188 28.0324 1.56094 28.0511 1.62281 28.0689C1.65937 28.0792 1.68844 28.1008 1.72688 28.1074C1.77937 28.1158 1.82344 28.1177 1.875 28.1252V30.9358V30.9367C1.87688 33.7024 3.38813 36.1164 5.625 37.4139V38.4367H3.77719C3.76687 38.4367 3.75938 38.4311 3.75 38.4311C1.68187 38.4311 0 40.113 0 42.1811V45.9349C0 46.4533 0.419063 46.8724 0.9375 46.8724ZM14.2209 23.7442C14.5312 24.2983 14.7581 24.903 14.8847 25.5461C14.4563 25.2208 14.0512 25.0145 13.6547 24.8955L14.2209 23.7442ZM8.90531 20.6233C10.4437 20.6233 11.8453 21.1999 12.9187 22.143L11.5294 24.9714C11.1581 25.0811 10.7737 25.2255 10.365 25.3877C8.80875 26.0036 6.69187 26.8174 2.83125 26.3552C3.01969 23.1639 5.66719 20.6233 8.90531 20.6233ZM3.75 30.932V28.3286C7.3875 28.5686 9.55406 27.7239 11.055 27.1314C12.8212 26.432 13.3481 26.2305 15 28.3267V30.932C15 34.0324 12.4772 36.5533 9.375 36.5533C6.27281 36.5533 3.75 34.0324 3.75 30.932ZM9.375 38.4283C10.0228 38.4283 10.6491 38.3364 11.25 38.1817V39.3686V39.3695V39.3714C11.25 39.7539 10.5197 40.3108 9.375 40.3108C8.23031 40.3108 7.5 39.7539 7.5 39.3714V38.1817C8.10094 38.3374 8.72719 38.4283 9.375 38.4283ZM3.73125 40.308C3.73781 40.308 3.74344 40.3117 3.75 40.3117H5.84812C6.35437 41.4114 7.71562 42.1858 9.375 42.1858C11.0344 42.1858 12.3956 41.4114 12.9019 40.3117H15C15.0066 40.3117 15.0122 40.308 15.0188 40.308C16.0444 40.3183 16.875 41.1536 16.875 42.1811V44.9974H1.875V42.1811C1.875 41.1536 2.70656 40.3183 3.73125 40.308Z" fill="#DF681F"/>
<path d="M36.5625 46.8723H34.6875V44.6654C37.485 43.0426 39.375 40.021 39.375 36.5607V30.9338C39.375 28.6707 37.7616 26.776 35.625 26.341V23.4338C35.625 22.9154 35.2059 22.4963 34.6875 22.4963H29.0625C24.4097 22.4963 20.625 26.281 20.625 30.9338V36.6067C20.625 36.6123 20.6278 36.617 20.6278 36.6226C20.6503 40.0567 22.5319 43.052 25.3125 44.6663V46.8723H23.4375C20.3353 46.8723 17.8125 49.3951 17.8125 52.4973V56.2473C17.8125 57.2813 18.6534 58.1223 19.6875 58.1223H40.3125C41.3466 58.1223 42.1875 57.2813 42.1875 56.2473V52.4973C42.1875 49.3951 39.6647 46.8723 36.5625 46.8723ZM29.0625 24.3723H33.75V27.1848C33.75 27.7032 34.1691 28.1223 34.6875 28.1223C36.2381 28.1223 37.5 29.3842 37.5 30.9348V32.0073L36.15 31.0951C36.1106 31.0688 36.0656 31.0632 36.0244 31.0426C35.9728 31.0182 35.925 30.9938 35.8697 30.9798C35.8059 30.961 35.7422 30.9563 35.6766 30.9526C35.6213 30.9498 35.5697 30.946 35.5134 30.9526C35.4478 30.961 35.3869 30.9798 35.3241 31.0023C35.2866 31.0154 35.2481 31.0145 35.2116 31.0313C35.1937 31.0407 33.4481 31.8723 30.4688 31.8723C27.3966 31.8723 24.6975 30.992 24.6694 30.9826C24.6497 30.976 24.63 30.9807 24.6103 30.9751C24.5494 30.9582 24.4875 30.9554 24.4237 30.9526C24.3637 30.9498 24.3056 30.9441 24.2475 30.9526C24.1913 30.961 24.1397 30.9807 24.0844 30.9985C24.0234 31.0191 23.9634 31.0398 23.9072 31.0726C23.8884 31.0829 23.8688 31.0838 23.8509 31.0951L22.5 32.0073V30.9348C22.5 27.317 25.4447 24.3723 29.0625 24.3723ZM22.5 36.5617V34.2704L24.5306 32.8988C25.4803 33.1698 27.8166 33.7473 30.4688 33.7473C32.9616 33.7473 34.6997 33.2335 35.5153 32.9298L37.5 34.2704V36.5617C37.5 40.696 34.1353 44.0598 29.9991 44.0598C25.8638 44.0598 22.5 40.696 22.5 36.5617ZM29.9991 45.9348C30.9788 45.9348 31.9237 45.7829 32.8125 45.5026V47.807C32.8125 48.8251 31.5244 49.6857 30 49.6857C28.4756 49.6857 27.1875 48.8251 27.1875 47.807V45.5026C28.0753 45.7829 29.0194 45.9348 29.9991 45.9348ZM23.4375 48.7473H25.4803C26.0053 50.3607 27.8231 51.5607 30 51.5607C32.1769 51.5607 33.9956 50.3607 34.5197 48.7473H36.5625C38.6306 48.7473 40.3125 50.4292 40.3125 52.4973V56.2473H19.6922C19.6903 56.2473 19.6894 56.2463 19.6875 56.2463V52.4973C19.6875 50.4292 21.3694 48.7473 23.4375 48.7473Z" fill="#DF681F"/>
</g>
<defs>
<clipPath id="clip0_589:986">
<rect width="60" height="60" fill="white"/>
</clipPath>
</defs>
</svg>
