<svg width="48" height="60" viewBox="0 0 48 60" fill="none" xmlns="http://www.w3.org/2000/svg">
<path d="M47.0171 24.6357C48.2061 22.8143 47.9865 20.4444 46.4831 18.8725C45.8205 18.1796 45.5436 17.2063 45.7421 16.2685C46.193 14.1405 45.1321 12.01 43.1623 11.0873C42.2941 10.6807 41.6843 9.87304 41.5306 8.92687C41.1823 6.77976 39.4233 5.17629 37.2533 5.02746C36.2969 4.96183 35.4364 4.4291 34.9514 3.60223C33.8508 1.72617 31.6319 0.866367 29.5542 1.51137C28.6387 1.79566 27.644 1.60957 26.893 1.01391C25.189 -0.337969 22.809 -0.337969 21.1051 1.01391C20.3542 1.6098 19.3592 1.79566 18.4439 1.51137C16.3666 0.86625 14.1472 1.72605 13.0467 3.60223C12.5617 4.4291 11.7013 4.96183 10.7449 5.02746C8.57483 5.17629 6.81596 6.77988 6.46745 8.92687C6.31393 9.87304 5.70397 10.6807 4.83596 11.0873C2.86627 12.0101 1.80538 14.1407 2.25596 16.2685C2.45459 17.2063 2.17756 18.1798 1.5151 18.8726C0.0118213 20.4445 -0.207906 22.8145 0.981079 24.636C1.50502 25.4386 1.59842 26.4464 1.23081 27.3317C0.396782 29.3406 1.04823 31.6298 2.81471 32.8987C3.59331 33.4581 4.04436 34.364 4.02139 35.3223C3.96948 37.4967 5.40385 39.3961 7.50948 39.9412C8.13104 40.1021 8.67104 40.4618 9.05799 40.9523L4.21534 52.6433C3.5367 54.2817 5.07268 55.9688 6.76639 55.4489L12.0682 53.8218C12.2231 53.7746 12.3902 53.8439 12.466 53.9867L15.0644 58.8861C15.8956 60.4534 18.1744 60.3427 18.8522 58.7062L23.8996 46.521C23.9658 46.5187 24.032 46.5187 24.0982 46.521L29.1456 58.7062C29.8247 60.3453 32.1033 60.4511 32.9334 58.8862L35.5318 53.9867C35.6075 53.8438 35.7748 53.7745 35.9297 53.822L41.2314 55.449C42.926 55.9692 44.4608 54.2809 43.7825 52.6434L38.9398 40.9524C39.3267 40.4619 39.8667 40.1022 40.4883 39.9413C42.5939 39.3963 44.0281 37.4969 43.9763 35.3224C43.9534 34.3642 44.4046 33.4582 45.1831 32.899C46.9497 31.6299 47.601 29.3407 46.7669 27.3319C46.3999 26.4462 46.4933 25.4383 47.0171 24.6357ZM17.2285 58.0333C17.1183 58.2996 16.7519 58.3159 16.6175 58.0624L14.0191 53.163C13.5491 52.2767 12.5119 51.8474 11.5529 52.1415L6.25112 53.7685C5.97608 53.8527 5.7294 53.5817 5.83956 53.3158L10.1359 42.9432C11.1053 44.2711 12.7257 45.0111 14.4316 44.8119C15.3837 44.7009 16.3274 45.0663 16.9561 45.7898C17.8681 46.8398 19.1533 47.3972 20.4646 47.397C20.8793 47.397 21.2965 47.339 21.7055 47.2255L17.2285 58.0333ZM41.7473 53.7684L36.4456 52.1414C35.4867 51.8472 34.4492 52.2767 33.9793 53.1629L31.3809 58.0623C31.2467 58.3155 30.8799 58.2991 30.7698 58.0332L26.2938 47.2275C27.9953 47.6997 29.842 47.1712 31.0424 45.7896C31.671 45.066 32.6143 44.7003 33.5668 44.8117C35.2744 45.0112 36.8938 44.271 37.8626 42.9431L42.1591 53.3154C42.2695 53.5823 42.0214 53.8522 41.7473 53.7684ZM45.5454 23.675C44.7037 24.9644 44.5537 26.5833 45.1441 28.0055C45.6633 29.256 45.2579 30.681 44.1581 31.471C42.9075 32.3694 42.1828 33.8247 42.2196 35.364C42.2519 36.7178 41.359 37.9002 40.0481 38.2394C38.822 38.5569 37.7924 39.3549 37.1749 40.4341C37.1733 40.4373 37.1715 40.4403 37.1699 40.4434C37.039 40.6734 36.9255 40.9155 36.8342 41.1692C36.3755 42.4432 35.1165 43.2239 33.7708 43.0662C32.2417 42.8873 30.7254 43.4748 29.7156 44.6372C28.8276 45.6593 27.3711 45.9315 26.1737 45.2993C25.7665 45.0841 25.3352 44.9348 24.8948 44.8485C24.8912 44.8476 24.8876 44.8468 24.8839 44.8461C24.2989 44.7328 23.6978 44.7329 23.1128 44.8466C23.1106 44.847 23.1087 44.8475 23.1065 44.8479C22.6651 44.9342 22.233 45.0838 21.8249 45.2993C20.6274 45.9316 19.171 45.6593 18.2831 44.6372C17.3927 43.6124 16.1092 43.0346 14.7696 43.0346C14.5898 43.0346 14.4088 43.0451 14.2277 43.0663C12.8833 43.2237 11.623 42.4434 11.1642 41.1694C11.0729 40.9159 10.9597 40.6741 10.8289 40.4442C10.8269 40.4404 10.8249 40.4369 10.823 40.4332C10.2054 39.3545 9.17612 38.5568 7.95034 38.2394C6.63948 37.9001 5.74663 36.7178 5.77897 35.3641C5.81577 33.8247 5.09108 32.3695 3.84045 31.471C2.74077 30.6811 2.33518 29.256 2.85444 28.0053C3.44483 26.5832 3.29483 24.9643 2.45319 23.6749C1.71315 22.5411 1.84979 21.0657 2.78577 20.0872C3.84995 18.9744 4.29491 17.4107 3.97592 15.9043C3.69538 14.5796 4.35584 13.2533 5.58198 12.6789C6.97639 12.0257 7.95608 10.7283 8.20288 9.20836C8.41979 7.87172 9.51479 6.87351 10.8656 6.78093C12.4018 6.67558 13.7842 5.81976 14.5632 4.49144C15.2484 3.32355 16.6303 2.78848 17.923 3.18996C19.3936 3.64664 20.9917 3.34793 22.198 2.39086C23.2585 1.54922 24.7403 1.54922 25.8012 2.39086C27.0074 3.34781 28.6052 3.64676 30.076 3.18996C31.3692 2.78836 32.7508 3.32367 33.4358 4.49144C34.2149 5.81965 35.5972 6.67547 37.1334 6.78093C38.4842 6.87363 39.5792 7.87183 39.7962 9.20836C40.043 10.7283 41.0228 12.0257 42.4171 12.679C43.6433 13.2533 44.3037 14.5796 44.0231 15.9043C43.7041 17.4107 44.149 18.9744 45.2133 20.0872C46.1488 21.0657 46.2854 22.5411 45.5454 23.675Z" fill="#DF681F"/>
<path d="M7.35368 22.5149C7.83497 22.5741 8.27407 22.2316 8.33325 21.75C9.3038 13.8615 16.0392 7.91297 24 7.91297C31.9648 7.91297 38.7004 13.8647 39.6678 21.7574C39.7224 22.2028 40.1014 22.5294 40.539 22.5294C40.5747 22.5294 40.6107 22.5272 40.647 22.5227C41.1288 22.4637 41.4714 22.0253 41.4125 21.5435C40.3372 12.7707 32.8515 6.15527 24 6.15527C15.1527 6.15527 7.66751 12.7672 6.58868 21.5353C6.5295 22.0171 6.87192 22.4556 7.35368 22.5149Z" fill="#DF681F"/>
<path d="M40.6454 24.8742C40.1651 24.8156 39.7253 25.1579 39.6662 25.6397C38.6992 33.5327 31.9635 39.4848 23.9984 39.4848C16.0369 39.4848 9.30151 33.5357 8.33132 25.6466C8.27214 25.1649 7.83386 24.8226 7.35175 24.8816C6.87011 24.9408 6.52745 25.3794 6.58675 25.8612C7.66511 34.6299 15.1503 41.2424 23.9982 41.2424C32.8501 41.2424 40.3358 34.6265 41.4107 25.8533C41.4698 25.3717 41.1272 24.9333 40.6454 24.8742Z" fill="#DF681F"/>
<path d="M36.4092 20.0718C36.1858 19.3844 35.5748 18.9234 34.8523 18.8975L27.9616 18.6503L25.5971 12.1732C25.3492 11.4942 24.722 11.0554 23.9992 11.0554C23.2764 11.0554 22.6492 11.4942 22.4014 12.1732L20.0369 18.6503L13.1461 18.8975C12.4238 18.9234 11.8127 19.3844 11.5893 20.0718C11.366 20.7592 11.5893 21.4914 12.1585 21.937L17.5879 26.1873L15.6937 32.8173C15.4951 33.5123 15.7447 34.2359 16.3295 34.6608C16.9137 35.0853 17.6791 35.0998 18.2792 34.6958L23.9991 30.8453L29.7192 34.6955C30.3186 35.0991 31.0839 35.0855 31.6688 34.6606C32.2537 34.2358 32.5032 33.5122 32.3045 32.817L30.4103 26.1871L35.8397 21.9369C36.409 21.4913 36.6325 20.7592 36.4092 20.0718ZM29.2971 24.8266C28.7492 25.2555 28.5187 25.9648 28.7099 26.6335L30.572 33.1509L24.9492 29.3661C24.6605 29.1718 24.3298 29.0746 23.9991 29.0746C23.6684 29.0746 23.3377 29.1718 23.0492 29.366L17.4262 33.1508L19.2883 26.6335C19.4794 25.9646 19.249 25.2555 18.7013 24.8266L13.3639 20.6484L20.1379 20.4053C20.8331 20.3804 21.4363 19.942 21.6748 19.2887L23.9992 12.9214L26.3236 19.2887C26.5622 19.942 27.1654 20.3804 27.8606 20.4052L34.6344 20.6483L29.2971 24.8266Z" fill="#DF681F"/>
</svg>
