<svg width="30" height="26" viewBox="0 0 30 26" fill="none" xmlns="http://www.w3.org/2000/svg">
<path d="M13.5709 23.7536C13.5709 24.112 13.4647 24.4623 13.2656 24.7603C13.0665 25.0582 12.7835 25.2905 12.4524 25.4276C12.1213 25.5647 11.757 25.6006 11.4056 25.5307C11.0541 25.4608 10.7312 25.2882 10.4778 25.0348C10.2244 24.7814 10.0519 24.4586 9.98196 24.1071C9.91205 23.7556 9.94793 23.3913 10.0851 23.0602C10.2222 22.7292 10.4544 22.4462 10.7524 22.2471C11.0504 22.048 11.4007 21.9417 11.759 21.9417C12.2396 21.9417 12.7005 22.1326 13.0402 22.4724C13.38 22.8122 13.5709 23.2731 13.5709 23.7536Z" fill="#0D3C6B"/>
<path d="M25.4691 23.7536C25.4691 24.112 25.3629 24.4623 25.1638 24.7603C24.9647 25.0582 24.6817 25.2905 24.3506 25.4276C24.0195 25.5647 23.6552 25.6006 23.3038 25.5307C22.9523 25.4608 22.6294 25.2882 22.376 25.0348C22.1226 24.7814 21.9501 24.4586 21.8802 24.1071C21.8102 23.7556 21.8461 23.3913 21.9833 23.0602C22.1204 22.7292 22.3526 22.4462 22.6506 22.2471C22.9486 22.048 23.2989 21.9417 23.6572 21.9417C24.1378 21.9417 24.5986 22.1326 24.9384 22.4724C25.2782 22.8122 25.4691 23.2731 25.4691 23.7536Z" fill="#0D3C6B"/>
<path fill-rule="evenodd" clip-rule="evenodd" d="M10.4723 20.8547H24.8588C25.4567 20.8459 26.0338 20.6343 26.4958 20.2547C26.9577 19.875 27.2771 19.3498 27.4015 18.7649L29.8174 7.89353C29.9013 7.50987 29.9998 6.99999 29.9998 6.99999C29.9998 6.99999 29.9998 5.99999 28.9998 5.99999C27.9998 5.99999 27.9998 6.99999 27.9998 6.99999V7.49999L25.656 18.4025C25.6171 18.5847 25.5166 18.7479 25.3713 18.8645C25.2261 18.9811 25.0451 19.0441 24.8588 19.0428H10.4723C10.2811 19.043 10.0958 18.9759 9.94899 18.8534C9.80215 18.7308 9.70306 18.5606 9.66906 18.3723L7.53706 6.51648L7.13844 4.70458C6.92223 4.70476 6.70869 4.75231 6.51283 4.84389C6.31698 4.93548 6.14357 5.06887 6.00482 5.23468C5.86607 5.4005 5.76533 5.5947 5.70971 5.80364C5.65409 6.01257 5.64493 6.23115 5.68288 6.44401L7.88736 18.6924C7.99528 19.2992 8.31357 19.8486 8.78632 20.244C9.25906 20.6395 9.85602 20.8557 10.4723 20.8547Z" fill="#0D3C6B"/>
<path d="M7.27176 10.9918C7.06206 10.9916 6.85894 10.9186 6.69703 10.7854C6.53513 10.6521 6.42447 10.4668 6.38393 10.261L4.82569 2.36116C4.81177 2.29295 4.77471 2.23165 4.72078 2.18763C4.66685 2.1436 4.59936 2.11956 4.52975 2.11958H0.90595C0.665677 2.11958 0.435245 2.02413 0.265346 1.85423C0.0954479 1.68433 0 1.4539 0 1.21363C0 0.973355 0.0954479 0.742923 0.265346 0.573025C0.435245 0.403126 0.665677 0.307678 0.90595 0.307678H4.52975C5.01846 0.309282 5.4916 0.479687 5.8691 0.790055C6.24661 1.10042 6.50529 1.53169 6.60135 2.01086L8.15959 9.91074C8.18544 10.042 8.18193 10.1773 8.1493 10.307C8.11666 10.4366 8.05572 10.5575 7.97085 10.6609C7.88598 10.7642 7.77927 10.8475 7.6584 10.9047C7.53753 10.9619 7.40549 10.9917 7.27176 10.9918Z" fill="#0D3C6B"/>
</svg>
