<svg width="20" height="18" viewBox="0 0 20 18" fill="none" xmlns="http://www.w3.org/2000/svg">
<path d="M14.7364 6.7091L10.7545 0.750011C10.5818 0.486375 10.2909 0.363647 10 0.363647C9.70909 0.363647 9.41818 0.49092 9.24545 0.750011L5.26364 6.7091H0.909091C0.409091 6.7091 0 7.11819 0 7.61819C0 7.70456 0.0136363 7.78638 0.0318182 7.86365L2.33636 16.2909C2.55 17.0546 3.25455 17.6182 4.09091 17.6182H15.9091C16.7455 17.6182 17.45 17.0546 17.6591 16.2864L19.9636 7.8591C19.9864 7.78638 20 7.70456 20 7.61819C20 7.11819 19.5909 6.7091 19.0909 6.7091H14.7364ZM7.27273 6.7091L10 2.7091L12.7273 6.7091H7.27273ZM10 13.9818C8.99545 13.9818 8.18182 13.1682 8.18182 12.1636C8.18182 11.1591 8.99545 10.3455 10 10.3455C11.0045 10.3455 11.8182 11.1591 11.8182 12.1636C11.8182 13.1682 11.0045 13.9818 10 13.9818Z" fill="white"/>
</svg>
