<svg width="25" height="25" viewBox="0 0 25 25" fill="none" xmlns="http://www.w3.org/2000/svg">
<g clip-path="url(#clip0_1081_2644)">
<path d="M12.4937 0C5.5875 0 0 5.59375 0 12.5C0 19.4062 5.5875 25 12.4937 25C19.4 25 25 19.4062 25 12.5C25 5.59375 19.4 0 12.4937 0ZM12.5 22.5C6.975 22.5 2.5 18.025 2.5 12.5C2.5 6.975 6.975 2.5 12.5 2.5C18.025 2.5 22.5 6.975 22.5 12.5C22.5 18.025 18.025 22.5 12.5 22.5Z" fill="#DF681F"/>
<path d="M13.125 6.25H11.25V13.75L17.8063 17.6875L18.75 16.15L13.125 12.8125V6.25Z" fill="#DF681F"/>
</g>
<defs>
<clipPath id="clip0_1081_2644">
<rect width="25" height="25" fill="white"/>
</clipPath>
</defs>
</svg>
