<svg width="26" height="17" viewBox="0 0 26 17" fill="none" xmlns="http://www.w3.org/2000/svg">
<path d="M0.25 8.40626C0.25 9.01001 0.726 9.50001 1.3125 9.50001H22.1226L17.5624 14.1944C17.148 14.6209 17.148 15.3144 17.5624 15.7409C17.9768 16.1675 18.6504 16.1675 19.0648 15.7409L25.4398 9.17845C25.5375 9.07782 25.6161 8.95751 25.6693 8.82407C25.7202 8.69063 25.75 8.55063 25.75 8.41063C25.75 8.40845 25.75 8.40845 25.75 8.40626C25.75 8.26407 25.7224 8.12188 25.6671 7.98845C25.614 7.85501 25.5354 7.7347 25.4376 7.63407L19.0626 1.07157C18.6482 0.645007 17.9746 0.645007 17.5602 1.07157C17.1459 1.49813 17.1459 2.19157 17.5602 2.61813L22.1226 7.31251H1.3125C0.726 7.31251 0.25 7.80251 0.25 8.40626Z" fill="#0D3C6B"/>
</svg>
