<svg width="30" height="30" viewBox="0 0 30 30" fill="none" xmlns="http://www.w3.org/2000/svg">
<g clip-path="url(#clip0_589:1008)">
<path d="M27.2253 6.34154C27.2248 6.33186 27.2238 6.32219 27.2221 6.31259C27.1847 6.25902 27.1386 6.21293 27.0999 6.16043C26.8199 5.77887 26.5233 5.41164 26.2104 5.05866C26.1247 4.9622 26.0389 4.86681 25.9511 4.77249C25.6289 4.42742 25.2909 4.09836 24.9372 3.78545C24.8718 3.72755 24.8107 3.66758 24.7454 3.61075C23.8737 2.86403 22.9194 2.21961 21.901 1.69023C21.8602 1.66881 21.8174 1.6506 21.7756 1.62913C21.3221 1.39866 20.857 1.19149 20.3823 1.00857C20.2751 0.970009 20.1776 0.933524 20.0758 0.901372C19.6535 0.749215 19.2248 0.61596 18.7897 0.501606C18.6611 0.467319 18.5325 0.431965 18.4017 0.401948C17.973 0.302289 17.5444 0.226179 17.106 0.16401C16.9731 0.144731 16.8424 0.118985 16.7084 0.102909C15.5793 -0.0343028 14.4379 -0.0343028 13.3088 0.102909C13.1748 0.118985 13.0441 0.144731 12.9112 0.16401C12.4728 0.226179 12.0398 0.302289 11.6154 0.401948C11.4847 0.431965 11.356 0.467319 11.2274 0.501606C10.7894 0.615897 10.3608 0.749152 9.94136 0.901372C9.83416 0.937794 9.73664 0.974279 9.63485 1.00857C9.16016 1.19149 8.69509 1.3986 8.24157 1.62913C8.19975 1.65054 8.15692 1.66875 8.11616 1.69023C7.09439 2.21904 6.1368 2.8634 5.2621 3.61075C5.19673 3.66752 5.13563 3.72755 5.07026 3.78545C4.71301 4.09981 4.37503 4.42887 4.0564 4.77249C3.96855 4.86681 3.88277 4.9622 3.79705 5.05866C3.48338 5.41088 3.18685 5.77812 2.90753 6.16037C2.86897 6.21286 2.82288 6.25896 2.78533 6.31252C2.78043 6.32188 2.7761 6.33155 2.77245 6.34147C-0.924152 11.522 -0.924152 18.4781 2.77245 23.6585C2.7761 23.6685 2.78037 23.6781 2.78533 23.6875C2.82282 23.7411 2.86891 23.7872 2.90753 23.8397C3.18692 24.2212 3.48338 24.5884 3.79705 24.9414C3.88277 25.0379 3.96855 25.1333 4.0564 25.2276C4.37937 25.5727 4.71728 25.9017 5.07026 26.2146C5.13563 26.2725 5.19673 26.3325 5.2621 26.3893C6.13373 27.1361 7.08811 27.7805 8.10649 28.3099C8.14725 28.3313 8.19008 28.3495 8.2319 28.371C8.68542 28.6014 9.15043 28.8086 9.62517 28.9915C9.73237 29.0301 9.82989 29.0666 9.93169 29.0987C10.3539 29.2509 10.7826 29.3841 11.2178 29.4985C11.3464 29.5328 11.475 29.5681 11.6057 29.5981C12.0344 29.6978 12.4631 29.7739 12.9015 29.8361C13.0344 29.8554 13.1651 29.8811 13.2991 29.8972C14.4281 30.0344 15.5696 30.0344 16.6987 29.8972C16.8326 29.8811 16.9634 29.8554 17.0963 29.8361C17.5346 29.7739 17.9676 29.6978 18.3921 29.5981C18.5228 29.5681 18.6514 29.5328 18.78 29.4985C19.2187 29.3842 19.6474 29.2509 20.0661 29.0987C20.1733 29.0623 20.2708 29.0258 20.3726 28.9915C20.8473 28.8086 21.3124 28.6015 21.7659 28.371C21.8077 28.3495 21.8506 28.3313 21.8913 28.3099C22.9097 27.7804 23.8641 27.1361 24.7357 26.3893C24.8011 26.3325 24.8622 26.2725 24.9275 26.2146C25.2848 25.901 25.6228 25.572 25.9414 25.2276C26.0293 25.1333 26.115 25.0379 26.2007 24.9414C26.5144 24.5884 26.8109 24.2212 27.0903 23.8397C27.1288 23.7872 27.1749 23.7411 27.2125 23.6875C27.2174 23.6781 27.2217 23.6685 27.2253 23.6585C30.922 18.4781 30.922 11.5221 27.2253 6.34154ZM26.0025 8.36931C27.0275 10.0574 27.6464 11.9604 27.8105 13.9284H21.3908C21.3122 12.6514 21.1112 11.3849 20.7907 10.1463C22.6041 9.80667 24.3593 9.20822 26.0025 8.36931ZM17.7308 2.43506C17.7909 2.449 17.8487 2.46828 17.9087 2.48222C18.2924 2.57227 18.6729 2.67513 19.0448 2.80374C19.1016 2.82302 19.1573 2.84557 19.2131 2.86591C19.5818 2.99452 19.945 3.13707 20.3009 3.29463C20.3631 3.32358 20.4242 3.35573 20.4863 3.38468C20.8271 3.54688 21.1601 3.72227 21.4852 3.91092L21.6995 4.04059C22.0082 4.22923 22.3083 4.43106 22.5998 4.64614C22.6748 4.70078 22.7498 4.75334 22.8238 4.81331C23.1096 5.02763 23.3832 5.25735 23.6447 5.50244C23.7133 5.56461 23.7841 5.62571 23.8516 5.69002C24.1259 5.95044 24.3874 6.22586 24.6404 6.51096C24.6725 6.54845 24.7068 6.58274 24.739 6.61816C23.2878 7.30974 21.7505 7.80357 20.168 8.08641C19.4349 6.07113 18.4665 4.14942 17.2829 2.36121C17.4318 2.38796 17.584 2.40297 17.7308 2.43506ZM10.756 13.9284C10.8405 12.7687 11.0379 11.6201 11.3454 10.4988C12.5597 10.6431 13.7815 10.7146 15.0044 10.7131C16.2283 10.7128 17.4512 10.6394 18.6665 10.4934C18.9734 11.6165 19.1698 12.767 19.2527 13.9284H10.756ZM19.2527 16.0719C19.1682 17.2315 18.9707 18.3801 18.6632 19.5014C17.4489 19.3571 16.2271 19.2856 15.0043 19.2871C13.7804 19.2857 12.5575 19.3572 11.3422 19.5014C11.0355 18.38 10.8392 17.2314 10.7559 16.0719H19.2527ZM15.0043 2.83809C16.2239 4.5667 17.2271 6.43837 17.9912 8.41113C16.9991 8.51651 16.0021 8.56945 15.0043 8.56976C14.0076 8.56857 13.0117 8.51532 12.0206 8.41007C12.7857 6.43862 13.7876 4.56758 15.0043 2.83809ZM5.36942 6.50983C5.6213 6.22473 5.88386 5.94931 6.15822 5.68889C6.22572 5.62458 6.2965 5.56348 6.36507 5.50131C6.62944 5.26055 6.90311 5.03084 7.18601 4.81218C7.25999 4.75535 7.33497 4.70498 7.41001 4.64501C7.70151 4.43069 8.00162 4.22879 8.31027 4.03946L8.5246 3.90979C8.8497 3.71976 9.18264 3.54431 9.52344 3.38355C9.58561 3.3546 9.64671 3.32245 9.70888 3.2935C10.0647 3.13274 10.428 2.99019 10.7967 2.86478C10.8524 2.84444 10.9039 2.82189 10.9649 2.80261C11.3368 2.67827 11.7152 2.57541 12.101 2.48109C12.161 2.46715 12.2189 2.44787 12.28 2.435C12.4268 2.40285 12.579 2.38784 12.728 2.36102C11.5439 4.14954 10.5752 6.07163 9.84176 8.08729C8.25934 7.80445 6.72194 7.31062 5.27083 6.61903C5.30298 6.58161 5.33727 6.54732 5.36942 6.50983ZM4.00616 8.36931C5.649 9.20815 7.40386 9.80661 9.21693 10.1463C8.89673 11.3849 8.69609 12.6514 8.61785 13.9284H2.19818C2.36233 11.9604 2.98126 10.0574 4.00616 8.36931ZM4.00616 21.631C2.98119 19.9429 2.36227 18.0399 2.19818 16.0719H8.61785C8.69647 17.3489 8.89742 18.6154 9.218 19.854C7.40461 20.1935 5.64937 20.792 4.00616 21.631ZM12.2778 27.5651C12.2178 27.5512 12.16 27.5319 12.0999 27.518C11.7163 27.4279 11.3358 27.3251 10.9639 27.1965C10.907 27.1772 10.8513 27.1546 10.7956 27.1343C10.4269 27.0057 10.0636 26.8631 9.70775 26.7056C9.64558 26.6766 9.58448 26.6445 9.52231 26.6155C9.18151 26.4533 8.84856 26.2779 8.52346 26.0893L8.30914 25.9596C8.00049 25.771 7.70038 25.5691 7.40888 25.3541C7.33384 25.2994 7.25886 25.2469 7.18488 25.1869C6.8991 24.9726 6.62543 24.7429 6.36394 24.4978C6.29536 24.4356 6.22459 24.3745 6.15709 24.3102C5.88273 24.0498 5.62124 23.7743 5.36829 23.4892C5.33614 23.4518 5.30185 23.4175 5.2697 23.3821C6.72088 22.6905 8.25821 22.1966 9.84063 21.9138C10.5737 23.9291 11.5421 25.8508 12.7257 27.639C12.5768 27.6123 12.4247 27.5973 12.2778 27.5651ZM15.0043 27.1622C13.7847 25.4336 12.7815 23.5619 12.0174 21.5891C14.0022 21.3755 16.0042 21.3755 17.989 21.5891L17.988 21.5902C17.223 23.5616 16.2211 25.4326 15.0043 27.1622ZM24.6392 23.4904C24.3874 23.7755 24.1248 24.0509 23.8504 24.3113C23.7829 24.3756 23.7122 24.4367 23.6436 24.4989C23.3792 24.7404 23.1055 24.9701 22.8226 25.188C22.7487 25.2448 22.6737 25.3006 22.5987 25.3552C22.3071 25.5695 22.007 25.7714 21.6984 25.9607L21.4841 26.0904C21.1597 26.2798 20.8267 26.4551 20.4852 26.6167C20.4231 26.6456 20.3619 26.6778 20.2998 26.7067C19.944 26.8675 19.5806 27.01 19.2119 27.1354C19.1562 27.1558 19.1048 27.1783 19.0437 27.1976C18.6718 27.3219 18.2935 27.4248 17.9077 27.5191C17.8476 27.5331 17.7898 27.5523 17.7287 27.5652C17.5819 27.5974 17.4296 27.6124 17.2807 27.6392C18.4643 25.851 19.4327 23.9293 20.1658 21.914C21.7482 22.1968 23.2856 22.6907 24.7367 23.3822C24.7057 23.4186 24.6714 23.4529 24.6392 23.4904ZM26.0025 21.631C24.3597 20.7921 22.6048 20.1937 20.7917 19.854C21.1119 18.6153 21.3126 17.3488 21.3908 16.0719H27.8105C27.6463 18.0399 27.0274 19.9429 26.0025 21.631Z" fill="#0D3C6B"/>
</g>
<defs>
<clipPath id="clip0_589:1008">
<rect width="30" height="30" fill="white"/>
</clipPath>
</defs>
</svg>
