<svg width="60" height="60" viewBox="0 0 60 60" fill="none" xmlns="http://www.w3.org/2000/svg">
<path d="M30.8131 0.468752C30.7307 0.326684 30.6124 0.208759 30.4701 0.126785C30.3278 0.0448105 30.1664 0.00166321 30.0022 0.00166321C29.8379 0.00166321 29.6766 0.0448105 29.5342 0.126785C29.3919 0.208759 29.2736 0.326684 29.1912 0.468752L19.4459 17.3438C19.3637 17.4862 19.3204 17.6478 19.3203 17.8123C19.3203 17.9767 19.3635 18.1383 19.4457 18.2808C19.5278 18.4233 19.6461 18.5417 19.7884 18.624C19.9308 18.7064 20.0924 18.7498 20.2569 18.75H25.7834C26.0321 18.75 26.2705 18.6512 26.4463 18.4754C26.6221 18.2996 26.7209 18.0611 26.7209 17.8125C26.7209 17.5639 26.6221 17.3254 26.4463 17.1496C26.2705 16.9738 26.0321 16.875 25.7834 16.875H21.8834L30.0022 2.8125L38.1209 16.875H34.2209C33.9723 16.875 33.7338 16.9738 33.558 17.1496C33.3822 17.3254 33.2834 17.5639 33.2834 17.8125C33.2834 18.0611 33.3822 18.2996 33.558 18.4754C33.7338 18.6512 33.9723 18.75 34.2209 18.75H39.7428C39.9073 18.7498 40.0688 18.7064 40.2112 18.624C40.3536 18.5417 40.4718 18.4233 40.554 18.2808C40.6361 18.1383 40.6794 17.9767 40.6793 17.8123C40.6793 17.6478 40.636 17.4862 40.5537 17.3438L30.8131 0.468752Z" fill="#DF681F"/>
<path d="M24.0328 51.5156C23.9456 51.6027 23.8765 51.7061 23.8293 51.8199C23.7821 51.9337 23.7578 52.0557 23.7578 52.1789C23.7578 52.3021 23.7821 52.4241 23.8293 52.5379C23.8765 52.6517 23.9456 52.7551 24.0328 52.8422C24.8163 53.626 25.7466 54.2477 26.7704 54.6719C27.7943 55.0961 28.8917 55.3144 30 55.3144C31.1082 55.3144 32.2056 55.0961 33.2295 54.6719C34.2534 54.2477 35.1836 53.626 35.9671 52.8422C36.1431 52.6663 36.2419 52.4277 36.2419 52.1789C36.2419 51.9301 36.1431 51.6915 35.9671 51.5156C35.7912 51.3397 35.5526 51.2409 35.3039 51.2409C35.0551 51.2409 34.8165 51.3397 34.6406 51.5156C34.0312 52.1251 33.3077 52.6085 32.5115 52.9384C31.7152 53.2682 30.8618 53.438 30 53.438C29.1381 53.438 28.2847 53.2682 27.4884 52.9384C26.6922 52.6085 25.9687 52.1251 25.3593 51.5156C25.2723 51.4285 25.1689 51.3593 25.0551 51.3121C24.9412 51.2649 24.8193 51.2407 24.6961 51.2407C24.5728 51.2407 24.4509 51.2649 24.337 51.3121C24.2232 51.3593 24.1198 51.4285 24.0328 51.5156Z" fill="#0D3C6B"/>
<path d="M33.3138 50.1891C33.4009 50.102 33.47 49.9986 33.5171 49.8847C33.5643 49.7709 33.5885 49.649 33.5885 49.5258C33.5885 49.4026 33.5643 49.2806 33.5171 49.1668C33.47 49.053 33.4009 48.9496 33.3138 48.8625C33.2267 48.7754 33.1233 48.7063 33.0095 48.6592C32.8957 48.612 32.7737 48.5878 32.6505 48.5878C32.5273 48.5878 32.4054 48.612 32.2916 48.6592C32.1778 48.7063 32.0743 48.7754 31.9872 48.8625C31.726 49.124 31.4158 49.3314 31.0744 49.473C30.733 49.6145 30.367 49.6874 29.9974 49.6874C29.6278 49.6874 29.2618 49.6145 28.9204 49.473C28.5789 49.3314 28.2688 49.124 28.0076 48.8625C27.9204 48.7754 27.817 48.7063 27.7032 48.6592C27.5894 48.612 27.4675 48.5878 27.3443 48.5878C27.2211 48.5878 27.0991 48.612 26.9853 48.6592C26.8715 48.7063 26.7681 48.7754 26.681 48.8625C26.5939 48.9496 26.5248 49.053 26.4777 49.1668C26.4305 49.2806 26.4063 49.4026 26.4062 49.5258C26.4063 49.649 26.4305 49.7709 26.4777 49.8847C26.5248 49.9986 26.5939 50.102 26.681 50.1891C27.56 51.0678 28.7521 51.5615 29.9951 51.5615C31.238 51.5615 32.4301 51.0678 33.3091 50.1891H33.3138Z" fill="#0D3C6B"/>
<path d="M37.2935 54.1687C35.3596 56.1023 32.7368 57.1886 30.0021 57.1886C27.2673 57.1886 24.6446 56.1023 22.7107 54.1687C22.5348 53.9928 22.2962 53.894 22.0474 53.894C21.7986 53.894 21.56 53.9928 21.3841 54.1687C21.2082 54.3447 21.1094 54.5833 21.1094 54.832C21.1094 55.0808 21.2082 55.3194 21.3841 55.4953C22.5158 56.6271 23.8594 57.5248 25.3381 58.1373C26.8167 58.7498 28.4016 59.0651 30.0021 59.0651C31.6026 59.0651 33.1874 58.7498 34.6661 58.1373C36.1448 57.5248 37.4883 56.6271 38.6201 55.4953C38.796 55.3194 38.8948 55.0808 38.8948 54.832C38.8948 54.5833 38.796 54.3447 38.6201 54.1687C38.4441 53.9928 38.2056 53.894 37.9568 53.894C37.708 53.894 37.4694 53.9928 37.2935 54.1687Z" fill="#0D3C6B"/>
<path d="M22.5 23.4375V36.5625C22.5 36.8111 22.5988 37.0496 22.7746 37.2254C22.9504 37.4012 23.1889 37.5 23.4375 37.5H24.375V45.4688C24.375 45.7174 24.4738 45.9558 24.6496 46.1317C24.8254 46.3075 25.0639 46.4062 25.3125 46.4062C25.5611 46.4062 25.7996 46.3075 25.9754 46.1317C26.1512 45.9558 26.25 45.7174 26.25 45.4688V37.5H29.0625V45.4688C29.0625 45.7174 29.1613 45.9558 29.3371 46.1317C29.5129 46.3075 29.7514 46.4062 30 46.4062C30.2486 46.4062 30.4871 46.3075 30.6629 46.1317C30.8387 45.9558 30.9375 45.7174 30.9375 45.4688V37.5H33.75V45.4688C33.75 45.7174 33.8488 45.9558 34.0246 46.1317C34.2004 46.3075 34.4389 46.4062 34.6875 46.4062C34.9361 46.4062 35.1746 46.3075 35.3504 46.1317C35.5262 45.9558 35.625 45.7174 35.625 45.4688V37.5H36.5625C36.8111 37.5 37.0496 37.4012 37.2254 37.2254C37.4012 37.0496 37.5 36.8111 37.5 36.5625V23.4375C37.5 23.1889 37.4012 22.9504 37.2254 22.7746C37.0496 22.5988 36.8111 22.5 36.5625 22.5H23.4375C23.1889 22.5 22.9504 22.5988 22.7746 22.7746C22.5988 22.9504 22.5 23.1889 22.5 23.4375ZM24.375 24.375H29.4L27.4641 28.125C27.39 28.2681 27.354 28.4278 27.3596 28.5888C27.3651 28.7498 27.4121 28.9067 27.496 29.0442C27.5798 29.1818 27.6977 29.2954 27.8383 29.3742C27.9789 29.4529 28.1373 29.4941 28.2984 29.4937H30.0469L28.3453 32.3438C28.2548 32.5541 28.2444 32.7902 28.316 33.0077C28.3877 33.2252 28.5364 33.4089 28.7342 33.5242C28.932 33.6395 29.1652 33.6785 29.3897 33.6337C29.6143 33.589 29.8147 33.4636 29.9531 33.2812L32.5125 29.0203C32.5944 28.8786 32.6377 28.7178 32.6381 28.5541C32.6386 28.3904 32.5962 28.2295 32.5151 28.0873C32.434 27.945 32.3172 27.8265 32.1761 27.7435C32.035 27.6605 31.8746 27.6159 31.7109 27.6141H29.8359L31.5094 24.375H35.625V35.625H24.375V24.375Z" fill="#DF681F"/>
<path d="M57.1875 22.5H44.0625C43.8139 22.5 43.5754 22.5988 43.3996 22.7746C43.2238 22.9504 43.125 23.1889 43.125 23.4375V36.5625C43.125 36.8111 43.2238 37.0496 43.3996 37.2254C43.5754 37.4012 43.8139 37.5 44.0625 37.5H45V45.4688C45 45.7174 45.0988 45.9558 45.2746 46.1317C45.4504 46.3075 45.6889 46.4062 45.9375 46.4062C46.1861 46.4062 46.4246 46.3075 46.6004 46.1317C46.7762 45.9558 46.875 45.7174 46.875 45.4688V37.5H49.6875V45.4688C49.6875 45.7174 49.7863 45.9558 49.9621 46.1317C50.1379 46.3075 50.3764 46.4062 50.625 46.4062C50.8736 46.4062 51.1121 46.3075 51.2879 46.1317C51.4637 45.9558 51.5625 45.7174 51.5625 45.4688V37.5H54.375V45.4688C54.375 45.7174 54.4738 45.9558 54.6496 46.1317C54.8254 46.3075 55.0639 46.4062 55.3125 46.4062C55.5611 46.4062 55.7996 46.3075 55.9754 46.1317C56.1512 45.9558 56.25 45.7174 56.25 45.4688V37.5H57.1875C57.4361 37.5 57.6746 37.4012 57.8504 37.2254C58.0262 37.0496 58.125 36.8111 58.125 36.5625V23.4375C58.125 23.1889 58.0262 22.9504 57.8504 22.7746C57.6746 22.5988 57.4361 22.5 57.1875 22.5ZM56.25 35.625H45V24.375H56.25V35.625Z" fill="#0D3C6B"/>
<path d="M15.9375 22.5H2.8125C2.56386 22.5 2.3254 22.5988 2.14959 22.7746C1.97377 22.9504 1.875 23.1889 1.875 23.4375V36.5625C1.875 36.8111 1.97377 37.0496 2.14959 37.2254C2.3254 37.4012 2.56386 37.5 2.8125 37.5H3.75V45.4688C3.75 45.7174 3.84877 45.9558 4.02459 46.1317C4.2004 46.3075 4.43886 46.4062 4.6875 46.4062C4.93614 46.4062 5.1746 46.3075 5.35041 46.1317C5.52623 45.9558 5.625 45.7174 5.625 45.4688V37.5H8.4375V45.4688C8.4375 45.7174 8.53627 45.9558 8.71209 46.1317C8.8879 46.3075 9.12636 46.4062 9.375 46.4062C9.62364 46.4062 9.8621 46.3075 10.0379 46.1317C10.2137 45.9558 10.3125 45.7174 10.3125 45.4688V37.5H13.125V45.4688C13.125 45.7174 13.2238 45.9558 13.3996 46.1317C13.5754 46.3075 13.8139 46.4062 14.0625 46.4062C14.3111 46.4062 14.5496 46.3075 14.7254 46.1317C14.9012 45.9558 15 45.7174 15 45.4688V37.5H15.9375C16.1861 37.5 16.4246 37.4012 16.6004 37.2254C16.7762 37.0496 16.875 36.8111 16.875 36.5625V23.4375C16.875 23.1889 16.7762 22.9504 16.6004 22.7746C16.4246 22.5988 16.1861 22.5 15.9375 22.5ZM15 35.625H3.75V24.375H15V35.625Z" fill="#0D3C6B"/>
<path d="M30 15C30.2486 15 30.4871 14.9012 30.6629 14.7254C30.8387 14.5496 30.9375 14.3111 30.9375 14.0625V9.60938C30.9375 9.36073 30.8387 9.12228 30.6629 8.94646C30.4871 8.77065 30.2486 8.67188 30 8.67188C29.7514 8.67188 29.5129 8.77065 29.3371 8.94646C29.1613 9.12228 29.0625 9.36073 29.0625 9.60938V14.0625C29.0625 14.3111 29.1613 14.5496 29.3371 14.7254C29.5129 14.9012 29.7514 15 30 15Z" fill="#DF681F"/>
<path d="M30 18.75C30.5178 18.75 30.9375 18.3303 30.9375 17.8125C30.9375 17.2947 30.5178 16.875 30 16.875C29.4822 16.875 29.0625 17.2947 29.0625 17.8125C29.0625 18.3303 29.4822 18.75 30 18.75Z" fill="#DF681F"/>
</svg>
