<svg width="60" height="60" viewBox="0 0 60 60" fill="none" xmlns="http://www.w3.org/2000/svg">
<path d="M42.5312 0H8.07812C6.13961 0 4.5625 1.57711 4.5625 3.51562V15.4688C4.5625 16.116 5.08727 16.6406 5.73437 16.6406C6.38148 16.6406 6.90625 16.116 6.90625 15.4688V3.51562C6.90625 2.86945 7.43195 2.34375 8.07812 2.34375H42.5312C43.1774 2.34375 43.7031 2.86945 43.7031 3.51562V47.1094C43.7031 47.7555 43.1774 48.2812 42.5312 48.2812H8.07812C7.43195 48.2812 6.90625 47.7555 6.90625 47.1094V25.3515C6.90625 24.7043 6.38148 24.1796 5.73437 24.1796C5.08727 24.1796 4.5625 24.7043 4.5625 25.3515V47.1094C4.5625 49.0479 6.13961 50.625 8.07812 50.625H42.5312C44.4698 50.625 46.0469 49.0479 46.0469 47.1094V3.51562C46.0469 1.57711 44.4698 0 42.5312 0Z" fill="#0D3C6B"/>
<path d="M6.56277 19.8867C6.34492 19.6688 6.04258 19.5445 5.73438 19.5445C5.42617 19.5445 5.12383 19.6688 4.90586 19.8867C4.68777 20.1059 4.5625 20.4082 4.5625 20.7152C4.5625 21.0246 4.68789 21.3258 4.90586 21.5449C5.12383 21.7629 5.42617 21.8883 5.73438 21.8883C6.04246 21.8883 6.3448 21.7629 6.56277 21.5449C6.78086 21.327 6.90625 21.0246 6.90625 20.7152C6.90625 20.407 6.78074 20.1059 6.56277 19.8867Z" fill="#DF681F"/>
<path d="M11.2582 53.3191C11.0402 53.1012 10.7392 52.9758 10.4297 52.9758C10.1215 52.9758 9.81914 53.1012 9.60129 53.3191C9.3832 53.5371 9.25781 53.8395 9.25781 54.1477C9.25781 54.457 9.38332 54.7582 9.60129 54.9762C9.81914 55.1953 10.1215 55.3195 10.4297 55.3195C10.7392 55.3195 11.0402 55.1953 11.2582 54.9762C11.4763 54.7582 11.6016 54.457 11.6016 54.1477C11.6016 53.8395 11.4762 53.5371 11.2582 53.3191Z" fill="#DF681F"/>
<path d="M49.5703 4.69488C48.9232 4.69488 48.3984 5.21953 48.3984 5.86676V51.8043C48.3984 52.4504 47.8727 52.9761 47.2266 52.9761H15.1172C14.4701 52.9761 13.9453 53.5008 13.9453 54.148C13.9453 54.7952 14.4701 55.3199 15.1172 55.3199H47.2266C49.1651 55.3199 50.7422 53.7428 50.7422 51.8043V5.86676C50.7422 5.21953 50.2174 4.69488 49.5703 4.69488Z" fill="#DF681F"/>
<path d="M54.2656 9.375C53.6185 9.375 53.0938 9.89965 53.0938 10.5469V56.4844C53.0938 57.1305 52.5681 57.6562 51.9219 57.6562H15.125C14.4779 57.6562 13.9531 58.1809 13.9531 58.8281C13.9531 59.4754 14.4779 60 15.125 60H51.9219C53.8604 60 55.4375 58.4229 55.4375 56.4844V10.5469C55.4375 9.89965 54.9127 9.375 54.2656 9.375Z" fill="#DF681F"/>
<path d="M23.5469 8.67188H12.2969C11.6498 8.67188 11.125 9.19652 11.125 9.84375V21.0938C11.125 21.741 11.6498 22.2656 12.2969 22.2656H23.5469C24.194 22.2656 24.7188 21.741 24.7188 21.0938V9.84375C24.7188 9.19652 24.194 8.67188 23.5469 8.67188ZM22.375 19.9219H13.4688V11.0156H22.375V19.9219Z" fill="#0D3C6B"/>
<path d="M19.7763 27.5862C19.3186 27.1287 18.5768 27.1286 18.1189 27.5862L15.0037 30.7014L13.5553 29.2528C13.0977 28.7952 12.3559 28.7953 11.8979 29.2528C11.4403 29.7104 11.4403 30.4525 11.8979 30.9101L14.1751 33.1873C14.3949 33.407 14.6929 33.5305 15.0037 33.5305C15.3146 33.5305 15.6125 33.407 15.8325 33.1873L19.7763 29.2434C20.2339 28.7858 20.2339 28.0438 19.7763 27.5862Z" fill="#0D3C6B"/>
<path d="M38.9766 29.1797H25.3047C24.6576 29.1797 24.1328 29.7043 24.1328 30.3516C24.1328 30.9988 24.6576 31.5234 25.3047 31.5234H38.9766C39.6237 31.5234 40.1485 30.9988 40.1485 30.3516C40.1485 29.7043 39.6237 29.1797 38.9766 29.1797Z" fill="#0D3C6B"/>
<path d="M38.3125 8.67188H30.1094C29.4623 8.67188 28.9375 9.19652 28.9375 9.84375C28.9375 10.491 29.4623 11.0156 30.1094 11.0156H38.3125C38.9596 11.0156 39.4844 10.491 39.4844 9.84375C39.4844 9.19652 38.9596 8.67188 38.3125 8.67188Z" fill="#0D3C6B"/>
<path d="M38.3125 14.2969H30.1094C29.4623 14.2969 28.9375 14.8215 28.9375 15.4688C28.9375 16.116 29.4623 16.6406 30.1094 16.6406H38.3125C38.9596 16.6406 39.4844 16.116 39.4844 15.4688C39.4844 14.8215 38.9596 14.2969 38.3125 14.2969Z" fill="#0D3C6B"/>
<path d="M38.3125 19.9219H30.1094C29.4623 19.9219 28.9375 20.4465 28.9375 21.0938C28.9375 21.741 29.4623 22.2656 30.1094 22.2656H38.3125C38.9596 22.2656 39.4844 21.741 39.4844 21.0938C39.4844 20.4465 38.9596 19.9219 38.3125 19.9219Z" fill="#0D3C6B"/>
<path d="M19.7763 36.5354C19.3186 36.0779 18.5768 36.0778 18.1189 36.5354L15.0037 39.6506L13.5553 38.2021C13.0977 37.7445 12.3559 37.7446 11.8979 38.2021C11.4403 38.6597 11.4403 39.4017 11.8979 39.8593L14.1751 42.1365C14.3949 42.3562 14.6929 42.4798 15.0037 42.4798C15.3146 42.4798 15.6125 42.3562 15.8325 42.1365L19.7763 38.1927C20.2339 37.7351 20.2339 36.993 19.7763 36.5354Z" fill="#0D3C6B"/>
<path d="M38.9766 38.0859H25.3047C24.6576 38.0859 24.1328 38.6106 24.1328 39.2578C24.1328 39.905 24.6576 40.4297 25.3047 40.4297H38.9766C39.6237 40.4297 40.1485 39.905 40.1485 39.2578C40.1485 38.6106 39.6237 38.0859 38.9766 38.0859Z" fill="#0D3C6B"/>
</svg>
