<svg width="60" height="60" viewBox="0 0 60 60" fill="none" xmlns="http://www.w3.org/2000/svg">
<g clip-path="url(#clip0_1081_2663)">
<path d="M60 30C60 27.737 59.1335 25.595 57.56 23.9686C56.1926 22.555 55.5662 20.6275 55.8417 18.6802C56.1587 16.4395 55.6007 14.1973 54.2705 12.3664C52.9403 10.5356 50.9802 9.31207 48.7513 8.92113C46.8142 8.58141 45.1745 7.39008 44.2527 5.65266C43.192 3.65367 41.4227 2.16762 39.2705 1.46836C37.1183 0.769101 34.8134 0.931289 32.7803 1.92504C31.0134 2.78871 28.9866 2.78871 27.2196 1.92504C25.1866 0.931289 22.8816 0.768867 20.7294 1.46836C18.5773 2.16762 16.8079 3.65367 15.7472 5.65266C14.8254 7.38996 13.1857 8.58129 11.2485 8.92113C9.01945 9.31207 7.05949 10.5356 5.7293 12.3664C4.3991 14.1973 3.84117 16.4395 4.15805 18.6802C4.43355 20.6275 3.80719 22.555 2.43973 23.9685C0.866484 25.595 0 27.737 0 30C0 32.263 0.866484 34.405 2.43996 36.0314C3.80742 37.445 4.43379 39.3725 4.15828 41.3198C3.84129 43.5605 4.39934 45.8027 5.72953 47.6335C7.05973 49.4644 9.0198 50.6879 11.2487 51.0789C13.1858 51.4186 14.8255 52.6099 15.7473 54.3473C16.808 56.3463 18.5773 57.8324 20.7295 58.5316C22.8818 59.2309 25.1868 59.0687 27.2197 58.075C28.9866 57.2113 31.0134 57.2113 32.7804 58.075C33.9824 58.6625 35.2794 58.9595 36.5838 58.9595C37.4856 58.9595 38.3909 58.8176 39.2706 58.5318C41.4227 57.8325 43.1921 56.3464 44.2528 54.3475C45.1746 52.6102 46.8143 51.4188 48.7515 51.079C50.9805 50.688 52.9405 49.4645 54.2707 47.6337C55.6009 45.8028 56.1588 43.5606 55.842 41.32C55.5664 39.3727 56.1928 37.4452 57.5603 36.0316C59.1335 34.405 60 32.2629 60 30ZM53.5211 41.6481C54.002 45.0485 51.729 48.1771 48.3464 48.7704C45.6921 49.236 43.4454 50.8683 42.1823 53.2488C40.5728 56.2827 36.895 57.4775 33.8095 55.9693C31.3886 54.7859 28.6116 54.7859 26.1904 55.9693C23.1049 57.4773 19.4272 56.2826 17.8177 53.2488C16.5546 50.8683 14.3079 49.236 11.6535 48.7704C8.27086 48.1771 5.99789 45.0485 6.47883 41.6482C6.85629 38.98 5.99813 36.3388 4.12441 34.4019C1.7366 31.9336 1.7366 28.0665 4.12441 25.5982C5.99813 23.6613 6.85629 21.0202 6.47883 18.352C5.99789 14.9516 8.27086 11.823 11.6535 11.2297C14.3078 10.7641 16.5545 9.13183 17.8175 6.75129C18.9561 4.60535 21.1294 3.37957 23.3959 3.37957C24.3336 3.37957 25.2874 3.58945 26.1904 4.03078C28.6113 5.21437 31.3884 5.21437 33.8095 4.03078C36.8948 2.52269 40.5725 3.71766 42.1822 6.75129C43.4453 9.13183 45.692 10.7641 48.3464 11.2297C51.729 11.823 54.002 14.9516 53.5211 18.3519C53.1436 21.0202 54.0018 23.6613 55.8755 25.5982C58.2633 28.0665 58.2633 31.9336 55.8755 34.4019C54.0018 36.3387 53.1436 38.9798 53.5211 41.6481Z" fill="#DF681F"/>
<path d="M46.2033 19.5907C45.6387 19.907 45.4373 20.6211 45.7537 21.1859C49.6823 28.1984 48.4518 37.0704 42.7611 42.761C39.3525 46.1696 34.8205 48.0469 30 48.0469C25.1795 48.0469 20.6475 46.1696 17.239 42.761C13.8304 39.3525 11.9531 34.8205 11.9531 30C11.9531 25.1795 13.8304 20.6475 17.239 17.2389C22.9297 11.548 31.802 10.3175 38.8147 14.2466C39.3794 14.5628 40.0936 14.3617 40.4099 13.7971C40.7262 13.2325 40.525 12.5183 39.9603 12.2019C36.1608 10.0731 31.6768 9.21386 27.3362 9.78316C22.852 10.371 18.7874 12.3759 15.5817 15.5816C11.7304 19.433 9.60938 24.5535 9.60938 30C9.60938 35.4465 11.7304 40.567 15.5816 44.4183C19.433 48.2696 24.5535 50.3906 30 50.3906C35.4465 50.3906 40.567 48.2696 44.4184 44.4184C47.6239 41.2128 49.629 37.1482 50.2168 32.6643C50.7859 28.3232 49.927 23.8398 47.7984 20.0403C47.4821 19.4756 46.7678 19.2743 46.2033 19.5907Z" fill="#0D3C6B"/>
<path d="M14.7656 30C14.7656 38.4002 21.5998 45.2344 30 45.2344C38.4002 45.2344 45.2344 38.4002 45.2344 30C45.2344 21.5998 38.4002 14.7656 30 14.7656C21.5998 14.7656 14.7656 21.5998 14.7656 30ZM42.8906 30C42.8906 37.1079 37.1079 42.8906 30 42.8906C22.8921 42.8906 17.1094 37.1079 17.1094 30C17.1094 22.8921 22.8921 17.1094 30 17.1094C37.1079 17.1094 42.8906 22.8921 42.8906 30Z" fill="#0D3C6B"/>
<path d="M28.9496 22.5673L26.9757 26.5668L22.5621 27.2081C22.1206 27.2722 21.7539 27.5815 21.616 28.0057C21.4781 28.4299 21.5932 28.8956 21.9126 29.207L25.1063 32.3202L24.3523 36.716C24.2769 37.1556 24.4576 37.6 24.8185 37.8622C25.1795 38.1245 25.6579 38.1591 26.0526 37.9514L30.0004 35.8759L33.9481 37.9513C34.1196 38.0415 34.3068 38.0859 34.4933 38.0859C34.7362 38.0859 34.9781 38.0105 35.1822 37.8621C35.5432 37.6 35.7239 37.1556 35.6484 36.7159L34.8944 32.3201L38.0881 29.2069C38.4076 28.8955 38.5225 28.4298 38.3847 28.0056C38.2469 27.5814 37.8801 27.2722 37.4387 27.208L33.025 26.5666L31.0511 22.5671C30.8539 22.1673 30.4466 21.9141 30.0004 21.9141C29.5543 21.9141 29.147 22.1673 28.9496 22.5673ZM31.1961 28.1565C31.3668 28.5023 31.6967 28.7421 32.0784 28.7975L34.7519 29.186L32.8174 31.0718C32.5412 31.341 32.4151 31.7289 32.4804 32.109L32.937 34.7718L30.5457 33.5146C30.375 33.4248 30.1877 33.3799 30.0004 33.3799C29.8132 33.3799 29.6258 33.4248 29.4552 33.5146L27.0638 34.7718L27.5205 32.109C27.5858 31.7289 27.4597 31.341 27.1835 31.0718L25.2489 29.186L27.9225 28.7975C28.3041 28.7421 28.6341 28.5023 28.8048 28.1565L30.0004 25.7338L31.1961 28.1565Z" fill="#0D3C6B"/>
<path d="M43.5898 17.5828C43.898 17.5828 44.1992 17.4574 44.4184 17.2395C44.6363 17.0203 44.7605 16.7191 44.7605 16.4098C44.7605 16.1016 44.6363 15.8004 44.4184 15.5813C44.1992 15.3633 43.898 15.2379 43.5898 15.2379C43.2805 15.2379 42.9793 15.3633 42.7602 15.5813C42.5422 15.8004 42.418 16.1016 42.418 16.4098C42.418 16.7191 42.5422 17.0203 42.7602 17.2395C42.9793 17.4574 43.2805 17.5828 43.5898 17.5828Z" fill="#0D3C6B"/>
</g>
<defs>
<clipPath id="clip0_1081_2663">
<rect width="60" height="60" fill="white"/>
</clipPath>
</defs>
</svg>
