<svg width="30" height="30" viewBox="0 0 30 30" fill="none" xmlns="http://www.w3.org/2000/svg">
<g clip-path="url(#clip0_589:1076)">
<path d="M0.972656 29.7778H4.99078C5.50828 29.7778 5.92828 29.3588 5.92828 28.8403V21.9835C5.92828 21.465 5.50828 21.046 4.99078 21.046H0.972656C0.455156 21.046 0.0351562 21.465 0.0351562 21.9835V28.8403C0.0351562 29.3578 0.455156 29.7778 0.972656 29.7778ZM1.91016 22.92H4.05328V27.9019H1.91016V22.92Z" fill="#0D3C6B"/>
<path d="M13.0259 29.7778C13.5434 29.7778 13.9634 29.3587 13.9634 28.8403V9.4903C13.9634 8.97186 13.5434 8.5528 13.0259 8.5528H9.00781C8.49031 8.5528 8.07031 8.97186 8.07031 9.4903V28.8403C8.07031 29.3587 8.49031 29.7778 9.00781 29.7778H13.0259ZM9.94531 10.4278H12.0884V27.9028H9.94531V10.4278Z" fill="#0D3C6B"/>
<path d="M21.0621 29.7778C21.5796 29.7778 21.9996 29.3588 21.9996 28.8403V15.9C21.9996 15.3816 21.5796 14.9625 21.0621 14.9625H17.0449C16.5274 14.9625 16.1074 15.3816 16.1074 15.9V28.8403C16.1074 29.3588 16.5274 29.7778 17.0449 29.7778H21.0621ZM17.9824 16.8375H20.1255V27.9028H17.9824V16.8375Z" fill="#0D3C6B"/>
<path d="M24.1406 0.715332V28.8403C24.1406 29.3588 24.5606 29.7778 25.0781 29.7778H29.0963C29.6138 29.7778 30.0338 29.3588 30.0338 28.8403V0.715332C30.0338 0.196895 29.6138 -0.222168 29.0963 -0.222168H25.0781C24.5606 -0.222168 24.1406 0.196895 24.1406 0.715332ZM26.0156 1.65283H28.1588V27.9028H26.0156V1.65283Z" fill="#0D3C6B"/>
</g>
<defs>
<clipPath id="clip0_589:1076">
<rect width="30" height="30" fill="white"/>
</clipPath>
</defs>
</svg>
