<svg width="26" height="16" viewBox="0 0 26 16" fill="none" xmlns="http://www.w3.org/2000/svg">
<path d="M0 7.65461C0 8.25836 0.476 8.74836 1.0625 8.74836H21.8726L17.3124 13.4427C16.898 13.8693 16.898 14.5627 17.3124 14.9893C17.7268 15.4159 18.4004 15.4159 18.8148 14.9893L25.1898 8.4268C25.2875 8.32617 25.3661 8.20586 25.4193 8.07242C25.4702 7.93899 25.5 7.79899 25.5 7.65899C25.5 7.6568 25.5 7.6568 25.5 7.65461C25.5 7.51242 25.4724 7.37024 25.4171 7.2368C25.364 7.10336 25.2854 6.98305 25.1876 6.88242L18.8126 0.319922C18.3982 -0.106641 17.7246 -0.106641 17.3102 0.319922C16.8959 0.746484 16.8959 1.43992 17.3102 1.86649L21.8726 6.56086H1.0625C0.476 6.56086 0 7.05086 0 7.65461Z" fill="#69849E"/>
</svg>
