<svg width="48" height="48" viewBox="0 0 48 48" fill="none" xmlns="http://www.w3.org/2000/svg">
<circle cx="24" cy="24" r="24" fill="#DF681F"/>
<path d="M17.901 22.2448C19.401 25.1927 21.8125 27.6042 24.7656 29.1042L27.0573 26.8073C27.3437 26.5208 27.7552 26.4375 28.1146 26.5521C29.2812 26.9375 30.5365 27.1458 31.8333 27.1458C32.4115 27.1458 32.875 27.6094 32.875 28.1875V31.8333C32.875 32.4115 32.4115 32.875 31.8333 32.875C22.0521 32.875 14.125 24.9479 14.125 15.1667C14.125 14.5885 14.5937 14.125 15.1667 14.125H18.8125C19.3906 14.125 19.8542 14.5885 19.8542 15.1667C19.8542 16.4635 20.0625 17.7188 20.4479 18.8854C20.5625 19.2448 20.4792 19.6562 20.1927 19.9427L17.901 22.2448Z" fill="white"/>
</svg>
