<svg width="30" height="29" viewBox="0 0 30 29" fill="none" xmlns="http://www.w3.org/2000/svg">
<path d="M9.32574 22.9186C7.78388 22.9186 6.549 24.1674 6.549 25.7093C6.549 27.2512 7.78388 28.5 9.32574 28.5C10.8676 28.5 12.1164 27.2512 12.1164 25.7093C12.1164 24.1674 10.8676 22.9186 9.32574 22.9186ZM23.2792 22.9186C21.7374 22.9186 20.5025 24.1674 20.5025 25.7093C20.5025 27.2512 21.7374 28.5 23.2792 28.5C24.8211 28.5 26.0699 27.2512 26.0699 25.7093C26.0699 24.1674 24.8211 22.9186 23.2792 22.9186ZM9.56993 18.3837C9.56993 18.3209 9.58388 18.2651 9.61179 18.2163L10.8676 15.9419H21.2629C22.3095 15.9419 23.2234 15.3628 23.7048 14.5047L29.0909 4.72325L26.649 3.38371H26.642L25.1002 6.17441L21.256 13.1512H11.4676L11.2862 12.7744L8.15365 6.17441L6.82807 3.38371L5.50946 0.593012H0.953648V3.38371H3.74435L8.7676 13.9674L6.8769 17.386C6.66062 17.7907 6.53504 18.2442 6.53504 18.7326C6.53504 20.2744 7.78388 21.5233 9.32574 21.5233H26.0699V18.7326H9.91876C9.72342 18.7326 9.56993 18.5791 9.56993 18.3837Z" fill="#0D3C6B"/>
</svg>
