<svg width="20" height="20" viewBox="0 0 20 20" fill="none" xmlns="http://www.w3.org/2000/svg">
<g clip-path="url(#clip0_920_1214)">
<path d="M10.232 7.90695H12.0925V5.11625H14.8832V3.25579H12.0925V0.465088H10.232V3.25579H7.44131V5.11625H10.232V7.90695ZM6.51108 16.279C5.48318 16.279 4.65992 17.1116 4.65992 18.1395C4.65992 19.1674 5.48318 20 6.51108 20C7.53899 20 8.37155 19.1674 8.37155 18.1395C8.37155 17.1116 7.53899 16.279 6.51108 16.279ZM15.8134 16.279C14.7855 16.279 13.9622 17.1116 13.9622 18.1395C13.9622 19.1674 14.7855 20 15.8134 20C16.8413 20 17.6739 19.1674 17.6739 18.1395C17.6739 17.1116 16.8413 16.279 15.8134 16.279ZM6.67387 13.2558C6.67387 13.2139 6.68318 13.1767 6.70178 13.1442L7.53899 11.6279H14.4692C15.1669 11.6279 15.7762 11.2418 16.0971 10.6697L19.6878 4.14881L18.0599 3.25579H18.0553L17.0274 5.11625L14.4646 9.76741H7.93899L7.81806 9.51625L5.72969 5.11625L4.84597 3.25579L3.9669 1.39532H0.929688V3.25579H2.79015L6.13899 10.3116L4.87852 12.5907C4.73434 12.8604 4.65062 13.1628 4.65062 13.4883C4.65062 14.5163 5.48318 15.3488 6.51108 15.3488H17.6739V13.4883H6.90643C6.7762 13.4883 6.67387 13.386 6.67387 13.2558Z" fill="white"/>
</g>
<defs>
<clipPath id="clip0_920_1214">
<rect width="20" height="20" fill="white"/>
</clipPath>
</defs>
</svg>
